<?xml version="1.0" standalone="no"?>
<!DOCTYPE svg PUBLIC "-//W3C//DTD SVG 20010904//EN"
 "http://www.w3.org/TR/2001/REC-SVG-20010904/DTD/svg10.dtd">
<svg version="1.0" xmlns="http://www.w3.org/2000/svg"
 width="1682.000000pt" height="396.000000pt" viewBox="0 0 1682.000000 396.000000"
 preserveAspectRatio="xMidYMid meet">

<g transform="translate(0.000000,396.000000) scale(0.100000,-0.100000)"
fill="#000000" stroke="none">
<path d="M2050 3945 c-904 -124 -1714 -885 -1961 -1843 -49 -191 -70 -340 -76
-543 -6 -207 4 -323 42 -487 87 -367 317 -639 606 -718 88 -24 285 -24 399 0
299 64 629 242 999 538 47 37 86 66 88 64 3 -2 9 -49 14 -104 15 -167 59 -302
124 -387 12 -17 46 -43 75 -59 44 -24 65 -29 119 -29 143 1 255 76 591 398
172 164 281 251 304 242 8 -3 22 -27 31 -54 61 -165 81 -210 118 -266 49 -72
104 -116 184 -148 84 -34 266 -34 372 -1 100 32 217 87 331 156 190 116 893
610 911 641 55 89 -25 208 -127 192 -21 -4 -136 -78 -311 -200 -672 -470 -842
-564 -1007 -555 -116 5 -139 29 -208 217 -22 58 -50 125 -63 147 -69 117 -206
164 -337 114 -78 -29 -200 -126 -398 -315 -191 -183 -298 -274 -350 -295 -30
-12 -34 -12 -47 6 -45 62 -71 258 -57 434 l11 124 75 71 c170 157 414 441 536
622 154 229 197 389 136 511 -71 142 -223 181 -382 97 -235 -123 -490 -595
-587 -1086 l-17 -86 -119 -103 c-381 -330 -700 -529 -988 -617 -73 -22 -106
-26 -216 -27 -127 -1 -132 0 -199 31 -205 98 -335 313 -386 638 -17 104 -14
372 5 500 98 665 463 1252 1000 1610 197 131 488 254 715 302 132 28 388 25
494 -5 135 -39 230 -94 326 -191 122 -122 179 -252 180 -404 0 -51 4 -61 34
-95 32 -34 39 -37 90 -37 49 0 59 4 87 32 82 81 45 335 -78 531 -209 335 -618
501 -1083 437z m894 -1667 c-14 -47 -74 -157 -132 -244 -57 -84 -219 -285
-242 -299 -28 -18 106 266 178 375 80 122 219 240 196 168z"/>
<path d="M6801 3107 c-160 -360 -291 -657 -291 -661 0 -3 70 -5 156 -4 l156 3
57 138 56 137 309 -2 308 -3 56 -137 56 -138 163 0 c153 0 163 1 155 18 -6 9
-131 290 -280 623 -149 333 -279 622 -288 642 l-18 37 -152 0 -151 0 -292
-653z m549 95 c55 -134 100 -245 100 -247 0 -3 -92 -5 -205 -5 -113 0 -205 4
-205 9 0 4 41 107 91 227 50 120 95 230 100 243 5 13 12 22 14 19 2 -2 50
-113 105 -246z"/>
<path d="M8170 3100 l0 -660 150 0 150 0 0 660 0 660 -150 0 -150 0 0 -660z"/>
<path d="M11862 2174 c-57 -29 -86 -78 -87 -145 0 -43 5 -64 21 -85 79 -107
239 -108 318 -1 29 40 29 134 0 173 -40 54 -70 68 -147 72 -53 2 -81 -2 -105
-14z"/>
<path d="M7149 2035 c-246 -49 -444 -218 -518 -443 -44 -129 -44 -325 -1 -454
62 -185 227 -348 417 -413 267 -90 566 -37 754 133 l62 56 -99 92 -98 92 -51
-43 c-224 -190 -549 -130 -668 123 -27 57 -32 81 -35 164 -7 160 44 279 155
364 156 119 403 107 548 -28 30 -27 48 -37 58 -31 8 4 53 44 101 89 l87 81
-43 43 c-55 55 -145 114 -217 141 -128 48 -312 62 -452 34z"/>
<path d="M8439 1729 c-301 -44 -491 -295 -450 -595 22 -157 121 -300 258 -372
91 -48 146 -62 258 -69 187 -10 329 40 446 156 74 74 112 140 134 233 92 392
-225 709 -646 647z m205 -253 c58 -24 113 -83 137 -144 26 -70 23 -196 -5
-252 -60 -117 -184 -172 -307 -137 -118 35 -183 131 -183 272 0 124 51 212
149 256 49 23 161 25 209 5z"/>
<path d="M9835 1725 c-80 -18 -123 -37 -179 -80 l-46 -35 0 55 0 55 -140 0
-140 0 0 -510 0 -510 144 0 145 0 3 298 c3 285 4 299 26 347 30 65 47 83 107
111 88 41 197 29 253 -28 58 -61 62 -88 62 -425 l0 -304 148 3 147 3 0 345 c0
307 -2 352 -19 405 -46 152 -140 238 -295 271 -81 17 -137 17 -216 -1z"/>
<path d="M11020 1725 c-194 -36 -357 -173 -410 -342 -80 -256 24 -515 251
-627 176 -86 403 -87 569 -1 70 36 178 159 167 189 -3 6 -53 38 -112 70 l-107
58 -16 -23 c-49 -72 -134 -119 -217 -119 -54 0 -129 28 -172 64 -58 51 -87
122 -87 216 -1 94 16 141 68 198 56 61 104 82 191 82 89 0 137 -22 193 -85
l42 -48 95 49 c140 73 134 66 106 119 -83 157 -328 245 -561 200z"/>
<path d="M12785 1734 c-212 -33 -376 -166 -436 -354 -29 -91 -29 -240 0 -331
27 -86 90 -180 155 -231 207 -165 579 -171 773 -12 24 19 43 41 43 47 -1 7
-35 48 -76 91 l-74 80 -28 -21 c-67 -49 -115 -67 -202 -71 -101 -5 -151 7
-217 51 -34 23 -56 48 -76 87 l-28 55 384 3 384 2 7 45 c8 59 -10 184 -35 248
-56 142 -182 253 -334 293 -55 15 -192 25 -240 18z m190 -243 c54 -25 111 -86
130 -140 8 -24 15 -45 15 -47 0 -2 -113 -4 -251 -4 l-251 0 6 32 c13 66 82
142 151 166 50 17 155 14 200 -7z"/>
<path d="M14155 1730 c-79 -12 -159 -47 -209 -91 l-46 -41 0 61 0 61 -140 0
-140 0 0 -510 0 -510 144 0 144 0 5 283 c3 187 8 295 17 322 7 23 32 60 59 87
54 54 132 82 212 76 l49 -3 0 138 c0 156 10 143 -95 127z"/>
<path d="M14790 1729 c-81 -14 -192 -70 -256 -131 -102 -96 -144 -199 -144
-353 0 -152 45 -261 149 -358 168 -157 468 -179 634 -46 21 17 41 29 44 26 3
-3 2 -33 -2 -67 -9 -77 -50 -158 -94 -188 -116 -76 -336 -66 -499 24 -35 19
-66 34 -67 32 -1 -2 -28 -48 -58 -103 -37 -66 -53 -103 -46 -111 16 -20 132
-74 202 -93 152 -44 359 -50 496 -15 140 36 255 125 307 238 50 110 54 154 54
664 l0 472 -140 0 -140 0 0 -61 0 -61 -41 37 c-96 87 -238 120 -399 94z m271
-254 c58 -21 124 -87 144 -144 34 -100 10 -197 -65 -264 -61 -55 -115 -71
-215 -65 -90 6 -152 39 -200 107 -26 37 -30 53 -34 121 -2 66 1 87 19 124 24
51 66 91 125 117 50 23 166 25 226 4z"/>
<path d="M16164 1726 c-206 -39 -372 -198 -413 -394 -74 -357 178 -642 569
-642 160 0 287 42 375 123 l46 42 -79 84 -78 85 -37 -28 c-59 -45 -127 -66
-217 -66 -99 0 -172 25 -222 77 -35 37 -68 91 -68 113 0 7 123 10 386 10 l387
0 -6 108 c-9 192 -77 319 -221 413 -111 73 -277 102 -422 75z m231 -240 c55
-25 98 -69 120 -123 28 -66 40 -63 -235 -63 -137 0 -250 2 -250 4 0 18 34 93
55 121 63 82 205 110 310 61z"/>
<path d="M11810 1210 l0 -510 145 0 145 0 0 510 0 510 -145 0 -145 0 0 -510z"/>
</g>
</svg>
